<svg width="16" height="16" viewBox="0 0 16 16" fill="none" xmlns="http://www.w3.org/2000/svg">
<path d="M2.66675 3.33333C2.66675 4.06971 3.2637 4.66667 4.00008 4.66667C4.73646 4.66667 5.33341 4.06971 5.33341 3.33333C5.33341 2.59695 4.73646 2 4.00008 2C3.2637 2 2.66675 2.59695 2.66675 3.33333Z" fill="#707585"/>
<path d="M2.66675 12.6667C2.66675 13.403 3.2637 14 4.00008 14C4.73646 14 5.33341 13.403 5.33341 12.6667C5.33341 11.9303 4.73646 11.3333 4.00008 11.3333C3.2637 11.3333 2.66675 11.9303 2.66675 12.6667Z" fill="#707585"/>
<path d="M13.3334 8C13.3334 7.26362 12.7365 6.66667 12.0001 6.66667C11.2637 6.66667 10.6667 7.26362 10.6667 8C10.6667 8.73638 11.2637 9.33333 12.0001 9.33333C12.7365 9.33333 13.3334 8.73638 13.3334 8Z" fill="#707585"/>
<path d="M8.00008 2.58333C7.58587 2.58333 7.25008 2.91912 7.25008 3.33333C7.25008 3.74755 7.58587 4.08333 8.00008 4.08333V2.58333ZM13.3334 4.08333C13.7476 4.08333 14.0834 3.74755 14.0834 3.33333C14.0834 2.91912 13.7476 2.58333 13.3334 2.58333V4.08333ZM8.00008 11.9167C7.58587 11.9167 7.25008 12.2525 7.25008 12.6667C7.25008 13.0809 7.58587 13.4167 8.00008 13.4167V11.9167ZM13.3334 13.4167C13.7476 13.4167 14.0834 13.0809 14.0834 12.6667C14.0834 12.2525 13.7476 11.9167 13.3334 11.9167V13.4167ZM8.00008 8.75C8.41429 8.75 8.75008 8.41421 8.75008 8C8.75008 7.58579 8.41429 7.25 8.00008 7.25V8.75ZM2.66675 7.25C2.25253 7.25 1.91675 7.58579 1.91675 8C1.91675 8.41421 2.25253 8.75 2.66675 8.75L2.66675 7.25ZM8.00008 3.33333V4.08333L13.3334 4.08333V3.33333V2.58333L8.00008 2.58333V3.33333ZM8.00008 12.6667V13.4167H13.3334V12.6667V11.9167H8.00008V12.6667ZM8.00008 8V7.25L2.66675 7.25L2.66675 8L2.66675 8.75L8.00008 8.75V8ZM2.66675 3.33333H1.91675C1.91675 4.48393 2.84949 5.41667 4.00008 5.41667V4.66667V3.91667C3.67792 3.91667 3.41675 3.6555 3.41675 3.33333H2.66675ZM4.00008 4.66667V5.41667C5.15067 5.41667 6.08341 4.48393 6.08341 3.33333H5.33341H4.58341C4.58341 3.6555 4.32225 3.91667 4.00008 3.91667V4.66667ZM5.33341 3.33333H6.08341C6.08341 2.18274 5.15067 1.25 4.00008 1.25V2V2.75C4.32225 2.75 4.58341 3.01117 4.58341 3.33333H5.33341ZM4.00008 2V1.25C2.84949 1.25 1.91675 2.18274 1.91675 3.33333H2.66675H3.41675C3.41675 3.01117 3.67792 2.75 4.00008 2.75V2ZM2.66675 12.6667H1.91675C1.91675 13.8173 2.84949 14.75 4.00008 14.75V14V13.25C3.67792 13.25 3.41675 12.9888 3.41675 12.6667H2.66675ZM4.00008 14V14.75C5.15067 14.75 6.08341 13.8173 6.08341 12.6667H5.33341H4.58341C4.58341 12.9888 4.32225 13.25 4.00008 13.25V14ZM5.33341 12.6667H6.08341C6.08341 11.5161 5.15067 10.5833 4.00008 10.5833V11.3333V12.0833C4.32225 12.0833 4.58341 12.3445 4.58341 12.6667H5.33341ZM4.00008 11.3333V10.5833C2.84949 10.5833 1.91675 11.5161 1.91675 12.6667H2.66675H3.41675C3.41675 12.3445 3.67792 12.0833 4.00008 12.0833V11.3333ZM13.3334 8L14.0834 8C14.0834 6.84941 13.1507 5.91667 12.0001 5.91667V6.66667V7.41667C12.3222 7.41667 12.5834 7.67783 12.5834 8H13.3334ZM12.0001 6.66667V5.91667C10.8495 5.91667 9.91675 6.84941 9.91675 8H10.6667L11.4167 8C11.4167 7.67783 11.6779 7.41667 12.0001 7.41667V6.66667ZM10.6667 8H9.91675C9.91675 9.15059 10.8495 10.0833 12.0001 10.0833V9.33333V8.58333C11.6779 8.58333 11.4167 8.32217 11.4167 8L10.6667 8ZM12.0001 9.33333V10.0833C13.1507 10.0833 14.0834 9.15059 14.0834 8L13.3334 8H12.5834C12.5834 8.32217 12.3222 8.58333 12.0001 8.58333V9.33333Z" fill="#707585"/>
</svg>
