<svg width="16" height="16" viewBox="0 0 16 16" fill="none" xmlns="http://www.w3.org/2000/svg">
<g clip-path="url(#clip0_0_375)">
<path d="M6.00004 5.99998L6.22358 5.32937C6.69264 3.92219 8.54909 3.62093 9.43906 4.80757C9.96039 5.50267 9.92402 6.46781 9.35186 7.12171L8.73906 7.82206C8.26264 8.36653 8.00004 9.06543 8.00004 9.78891V9.99998M14.6667 7.99998C14.6667 11.6819 11.6819 14.6666 8.00004 14.6666C4.31814 14.6666 1.33337 11.6819 1.33337 7.99998C1.33337 4.31808 4.31814 1.33331 8.00004 1.33331C11.6819 1.33331 14.6667 4.31808 14.6667 7.99998Z" stroke="#707585" stroke-width="1.5" stroke-linecap="round"/>
<path d="M8.00037 11.8333C8.09226 11.8335 8.16638 11.9084 8.16638 12.0003C8.16621 12.0921 8.09216 12.1661 8.00037 12.1663C7.90843 12.1663 7.83355 12.0922 7.83337 12.0003C7.83337 11.9083 7.90832 11.8333 8.00037 11.8333Z" fill="#707585" stroke="#707585"/>
</g>
<defs>
<clipPath id="clip0_0_375">
<rect width="16" height="16" fill="white"/>
</clipPath>
</defs>
</svg>
