<svg width="16" height="16" viewBox="0 0 16 16" fill="none" xmlns="http://www.w3.org/2000/svg">
<path d="M12.4994 6.47302V6.00329C12.4994 3.42413 10.485 1.33331 8 1.33331C5.51504 1.33331 3.50058 3.42413 3.50058 6.00329V6.47302C3.50058 7.03675 3.33981 7.58786 3.03853 8.05691L2.30024 9.20633C1.62588 10.2562 2.1407 11.6833 3.31357 12.0153C6.38183 12.8838 9.61817 12.8838 12.6864 12.0153C13.8593 11.6833 14.3741 10.2562 13.6998 9.20633L12.9615 8.05691C12.6602 7.58786 12.4994 7.03675 12.4994 6.47302Z" stroke="#707585" stroke-width="1.5"/>
<path d="M5 12.6667C5.43668 13.8319 6.61497 14.6667 8 14.6667C9.38503 14.6667 10.5633 13.8319 11 12.6667" stroke="#707585" stroke-width="1.5" stroke-linecap="round"/>
</svg>
