<svg width="16" height="16" viewBox="0 0 16 16" fill="none" xmlns="http://www.w3.org/2000/svg">
<g clip-path="url(#clip0_0_327)">
<path d="M2 8C2 10.5142 2 13.1046 2.87868 13.8856C3.75736 14.6667 5.17157 14.6667 8 14.6667C10.8284 14.6667 12.2426 14.6667 13.1213 13.8856C14 13.1046 14 10.5142 14 8" stroke="#707585" stroke-width="1.5"/>
<path d="M9.77359 9.46793L13.7784 8.26648C14.1754 8.14738 14.3739 8.08783 14.4999 7.94509C14.5244 7.91729 14.5466 7.88749 14.5662 7.856C14.6667 7.69434 14.6667 7.4871 14.6667 7.07261C14.6667 5.43918 14.6667 4.62246 14.2181 4.07106C14.1318 3.96508 14.035 3.86821 13.929 3.78198C13.3776 3.33333 12.5609 3.33333 10.9274 3.33333H5.07266C3.43922 3.33333 2.62251 3.33333 2.0711 3.78198C1.96512 3.86821 1.86826 3.96508 1.78203 4.07106C1.33337 4.62246 1.33337 5.43918 1.33337 7.07261C1.33337 7.4871 1.33337 7.69434 1.43389 7.856C1.45347 7.88749 1.47565 7.91729 1.50018 7.94509C1.62614 8.08783 1.82464 8.14738 2.22164 8.26648L6.22649 9.46793" stroke="#707585" stroke-width="1.5"/>
<path d="M4.33337 3.33333C4.88234 3.31942 5.43954 2.96993 5.62634 2.45354C5.63208 2.43766 5.63797 2.41999 5.64975 2.38464L5.66686 2.33333C5.69498 2.24896 5.70905 2.20675 5.7241 2.16933C5.91622 1.69141 6.36645 1.36691 6.8806 1.33577C6.92087 1.33333 6.96534 1.33333 7.05428 1.33333H8.9461C9.03504 1.33333 9.07952 1.33333 9.11978 1.33577C9.63393 1.36691 10.0842 1.69141 10.2763 2.16933C10.2913 2.20676 10.3054 2.24895 10.3335 2.33333L10.3506 2.38464C10.3623 2.41978 10.3683 2.4377 10.374 2.45354C10.5608 2.96993 11.1177 3.31942 11.6667 3.33333" stroke="#707585" stroke-width="1.5"/>
<path d="M9.33337 8.33333H6.66671C6.48261 8.33333 6.33337 8.48257 6.33337 8.66666V10.1077C6.33337 10.244 6.41636 10.3665 6.54291 10.4171L7.00967 10.6038C7.64543 10.8581 8.35465 10.8581 8.99042 10.6038L9.45717 10.4171C9.58372 10.3665 9.66671 10.244 9.66671 10.1077V8.66666C9.66671 8.48257 9.51747 8.33333 9.33337 8.33333Z" stroke="#707585" stroke-width="1.5" stroke-linecap="round"/>
</g>
<defs>
<clipPath id="clip0_0_327">
<rect width="16" height="16" fill="white"/>
</clipPath>
</defs>
</svg>
