<svg width="16" height="16" viewBox="0 0 16 16" fill="none" xmlns="http://www.w3.org/2000/svg">
<path d="M12.12 5.35954L12.429 5.05058C12.9409 4.53868 13.7708 4.53868 14.2827 5.05058C14.7946 5.56248 14.7946 6.39244 14.2827 6.90434L13.9738 7.2133L11.1334 10.0537C10.941 10.2461 10.8448 10.3423 10.7387 10.425C10.6136 10.5226 10.4782 10.6063 10.335 10.6745C10.2136 10.7324 10.0845 10.7754 9.82639 10.8615L9 11.1369L8.73264 11.2261L8.46528 11.3152C8.33826 11.3575 8.19822 11.3245 8.10354 11.2298C8.00887 11.1351 7.97581 10.9951 8.01815 10.868L8.10727 10.6007L8.19639 10.3333L8.47185 9.50693C8.55789 9.24881 8.60091 9.11976 8.65878 8.99833C8.72705 8.85509 8.81071 8.71972 8.9083 8.5946C8.99103 8.48854 9.08722 8.39234 9.27961 8.19996L12.12 5.35954Z" fill="#707585"/>
<path d="M12.12 5.35954L12.429 5.05058C12.9409 4.53868 13.7708 4.53868 14.2827 5.05058C14.7946 5.56248 14.7946 6.39244 14.2827 6.90434L13.9738 7.2133M12.12 5.35954C12.12 5.35954 12.1586 6.01608 12.7379 6.59538C13.3172 7.17468 13.9738 7.2133 13.9738 7.2133M12.12 5.35954L9.27961 8.19996C9.08722 8.39234 8.99103 8.48854 8.9083 8.5946C8.81071 8.71972 8.72705 8.85509 8.65878 8.99833C8.60091 9.11976 8.55789 9.24881 8.47185 9.50693L8.19639 10.3333L8.10727 10.6007M13.9738 7.2133L11.1334 10.0537C10.941 10.2461 10.8448 10.3423 10.7387 10.425C10.6136 10.5226 10.4782 10.6063 10.335 10.6745C10.2136 10.7324 10.0845 10.7754 9.82639 10.8615L9 11.1369L8.73264 11.2261M8.73264 11.2261L8.46528 11.3152C8.33826 11.3575 8.19822 11.3245 8.10354 11.2298C8.00887 11.1351 7.97581 10.9951 8.01815 10.868L8.10727 10.6007M8.73264 11.2261L8.10727 10.6007" stroke="#707585" stroke-width="1.5"/>
<path d="M5.33337 8.66666H7.00004" stroke="#707585" stroke-width="1.5" stroke-linecap="round"/>
<path d="M5.33337 6H9.66671" stroke="#707585" stroke-width="1.5" stroke-linecap="round"/>
<path d="M5.33337 11.3333H6.33337" stroke="#707585" stroke-width="1.5" stroke-linecap="round"/>
<path d="M13.219 2.11439C12.4379 1.33334 11.1808 1.33334 8.66667 1.33334H7.33333C4.81918 1.33334 3.5621 1.33334 2.78105 2.11439C2 2.89544 2 4.15252 2 6.66668V9.33334C2 11.8475 2 13.1046 2.78105 13.8856C3.5621 14.6667 4.81918 14.6667 7.33333 14.6667H8.66667C11.1808 14.6667 12.4379 14.6667 13.219 13.8856C13.8477 13.2569 13.9703 12.3197 13.9942 10.6667" stroke="#707585" stroke-width="1.5" stroke-linecap="round"/>
</svg>
