<svg width="16" height="16" viewBox="0 0 16 16" fill="none" xmlns="http://www.w3.org/2000/svg">
<g clip-path="url(#clip0_0_306)">
<path d="M1.33337 8C1.33337 5.48585 1.33337 4.22877 2.11442 3.44772C2.89547 2.66667 4.15255 2.66667 6.66671 2.66667H9.33337C11.8475 2.66667 13.1046 2.66667 13.8857 3.44772C14.6667 4.22877 14.6667 5.48585 14.6667 8.00001V9.33334C14.6667 11.8475 14.6667 13.1046 13.8857 13.8856C13.1046 14.6667 11.8475 14.6667 9.33337 14.6667H6.66671C4.15255 14.6667 2.89547 14.6667 2.11442 13.8856C1.33337 13.1046 1.33337 11.8475 1.33337 9.33334V8Z" stroke="#707585" stroke-width="1.5"/>
<path d="M4.66663 2.66667V1.66667" stroke="#707585" stroke-width="1.5" stroke-linecap="round"/>
<path d="M11.3334 2.66667V1.66667" stroke="#707585" stroke-width="1.5" stroke-linecap="round"/>
<path d="M1.66663 6H14.3333" stroke="#707585" stroke-width="1.5" stroke-linecap="round"/>
<path d="M12 11.3333C12 11.7015 11.7015 12 11.3333 12C10.9651 12 10.6666 11.7015 10.6666 11.3333C10.6666 10.9651 10.9651 10.6667 11.3333 10.6667C11.7015 10.6667 12 10.9651 12 11.3333Z" fill="#707585"/>
<path d="M12 8.66667C12 9.03486 11.7015 9.33333 11.3333 9.33333C10.9651 9.33333 10.6666 9.03486 10.6666 8.66667C10.6666 8.29848 10.9651 8 11.3333 8C11.7015 8 12 8.29848 12 8.66667Z" fill="#707585"/>
<path d="M8.66671 11.3333C8.66671 11.7015 8.36823 12 8.00004 12C7.63185 12 7.33337 11.7015 7.33337 11.3333C7.33337 10.9651 7.63185 10.6667 8.00004 10.6667C8.36823 10.6667 8.66671 10.9651 8.66671 11.3333Z" fill="#707585"/>
<path d="M8.66671 8.66667C8.66671 9.03486 8.36823 9.33333 8.00004 9.33333C7.63185 9.33333 7.33337 9.03486 7.33337 8.66667C7.33337 8.29848 7.63185 8 8.00004 8C8.36823 8 8.66671 8.29848 8.66671 8.66667Z" fill="#707585"/>
<path d="M5.33333 11.3333C5.33333 11.7015 5.03486 12 4.66667 12C4.29848 12 4 11.7015 4 11.3333C4 10.9651 4.29848 10.6667 4.66667 10.6667C5.03486 10.6667 5.33333 10.9651 5.33333 11.3333Z" fill="#707585"/>
<path d="M5.33333 8.66667C5.33333 9.03486 5.03486 9.33333 4.66667 9.33333C4.29848 9.33333 4 9.03486 4 8.66667C4 8.29848 4.29848 8 4.66667 8C5.03486 8 5.33333 8.29848 5.33333 8.66667Z" fill="#707585"/>
</g>
<defs>
<clipPath id="clip0_0_306">
<rect width="16" height="16" rx="5" fill="white"/>
</clipPath>
</defs>
</svg>
