<svg width="16" height="16" viewBox="0 0 16 16" fill="none" xmlns="http://www.w3.org/2000/svg">
<path d="M9.98002 15.1667H5.98002C2.36002 15.1667 0.813354 13.62 0.813354 10V6C0.813354 2.38 2.36002 0.833336 5.98002 0.833336H9.98002C13.6 0.833336 15.1467 2.38 15.1467 6V10C15.1467 13.62 13.6067 15.1667 9.98002 15.1667ZM5.98002 1.83334C2.90669 1.83334 1.81335 2.92667 1.81335 6V10C1.81335 13.0733 2.90669 14.1667 5.98002 14.1667H9.98002C13.0534 14.1667 14.1467 13.0733 14.1467 10V6C14.1467 2.92667 13.0534 1.83334 9.98002 1.83334H5.98002Z" fill="white"/>
<path d="M5.31335 15.1667C5.04002 15.1667 4.81335 14.94 4.81335 14.6667V1.33334C4.81335 1.06 5.04002 0.833336 5.31335 0.833336C5.58669 0.833336 5.81335 1.06 5.81335 1.33334V14.6667C5.81335 14.94 5.59335 15.1667 5.31335 15.1667Z" fill="white"/>
<path d="M9.98003 10.2067C9.85336 10.2067 9.72669 10.16 9.62669 10.06L7.92002 8.35333C7.72669 8.16 7.72669 7.84 7.92002 7.64666L9.62669 5.94C9.82002 5.74666 10.14 5.74666 10.3334 5.94C10.5267 6.13333 10.5267 6.45333 10.3334 6.64667L8.98669 8L10.34 9.35333C10.5334 9.54666 10.5334 9.86666 10.34 10.06C10.24 10.16 10.1134 10.2067 9.98003 10.2067Z" fill="white"/>
</svg>
